<?xml version="1.0" encoding="UTF-8"?>
<svg version="1.1" xmlns="http://www.w3.org/2000/svg" width="497" height="498">
<path d="M0 0 C164.01 0 328.02 0 497 0 C497 164.34 497 328.68 497 498 C332.99 498 168.98 498 0 498 C0 333.66 0 169.32 0 0 Z " fill="#0D0C0A" transform="translate(0,0)"/>
<path d="M0 0 C1.4128543 2.68152444 2.47313254 5.27372627 3.33984375 8.17578125 C10.93613301 32.74673413 22.12177795 54.55724244 39 74 C40.09441406 75.26070312 40.09441406 75.26070312 41.2109375 76.546875 C43.43980419 79.06510334 45.70781989 81.53933485 48 84 C48.72316406 84.78890625 49.44632813 85.5778125 50.19140625 86.390625 C65.09043517 102.02073994 84.35211035 114.31728934 103 125 C102.67 126.65 102.34 128.3 102 130 C82.49863042 131.65265844 63.2647177 115.80842618 49 104 C48.42266113 103.5241748 47.84532227 103.04834961 47.25048828 102.55810547 C33.79891292 91.40836514 21.87549453 79.30862979 11.3125 65.375 C10.75755859 64.65054688 10.20261719 63.92609375 9.63085938 63.1796875 C7.22712695 60.02425279 4.88082843 56.87346211 2.73046875 53.5390625 C1.24816361 50.92106718 1.24816361 50.92106718 -1 50 C-1.27199219 50.57234375 -1.54398437 51.1446875 -1.82421875 51.734375 C-13.61414014 74.45249596 -35.36040416 95.35520958 -56 110 C-56.59200195 110.42571289 -57.18400391 110.85142578 -57.79394531 111.29003906 C-87.5424095 132.50734517 -87.5424095 132.50734517 -99.76953125 130.55859375 C-100.50558594 130.37425781 -101.24164063 130.18992188 -102 130 C-102.495 127.525 -102.495 127.525 -103 125 C-102.47269287 124.69408936 -101.94538574 124.38817871 -101.40209961 124.07299805 C-90.38013295 117.64880022 -79.68287269 111.05311526 -69.59179688 103.23339844 C-68.1600117 102.12398452 -66.71367152 101.03341603 -65.265625 99.9453125 C-34.9457483 76.33256004 -15.03051305 45.06303082 -3 9 C-2.65710938 7.98550781 -2.31421875 6.97101563 -1.9609375 5.92578125 C-1.29835075 3.95350201 -0.64714863 1.9773986 0 0 Z " fill="#D7A443" transform="translate(246,89)"/>
<path d="M0 0 C5.55509382 5.33183946 7.27620613 10.95600672 7.64624023 18.50756836 C7.80651714 27.21847579 6.67288891 34.17738368 0.703125 40.91796875 C-6.56296652 47.57855265 -14.47869116 48.02882108 -23.76171875 47.71484375 C-29.04126865 47.33133266 -32.97281534 45.97716038 -36.875 42.3125 C-43.26603564 34.75440568 -45.37369358 27.45090936 -45.18359375 17.6328125 C-44.45549093 9.79879485 -41.47841331 3.98787533 -35.671875 -1.28515625 C-24.76146307 -9.80002121 -10.59616937 -8.12825813 0 0 Z " fill="#F3F0DF" transform="translate(168.875,275.6875)"/>
<path d="M0 0 C3.95826931 -0.05880857 7.91642392 -0.09386513 11.875 -0.125 C12.98359375 -0.14175781 14.0921875 -0.15851563 15.234375 -0.17578125 C26.46565349 -0.24184759 35.14972919 0.70621853 44 8 C49.02282114 13.15161143 50.30142988 18.67435354 50.4375 25.75 C50.31094932 33.2402186 48.74238851 39.15546193 43.42578125 44.6171875 C34.66770877 51.51748703 24.61773182 51.39278785 13.9375 51.1875 C12.58139514 51.17241956 11.22527398 51.15873712 9.86914062 51.14648438 C6.57900398 51.11135836 3.28971817 51.0621664 0 51 C0.25 49.125 0.25 49.125 1 47 C2.32 46.34 3.64 45.68 5 45 C5 31.8 5 18.6 5 5 C2.525 4.01 2.525 4.01 0 3 C0 2.01 0 1.02 0 0 Z " fill="#F7F4E3" transform="translate(66,271)"/>
<path d="M0 0 C4.62846248 -1.02265538 8.38624405 -1.18127645 13 0 C17.67901308 3.46903625 21.08502043 8.39583976 24.52929688 13.03320312 C26.59254465 15.79242026 28.7929697 18.41698686 31 21.0625 C31.66 21.87847656 32.32 22.69445312 33 23.53515625 C35.30699429 26.37834648 37.6560198 29.18722377 40 32 C40 23.09 40 14.18 40 5 C37.525 4.01 37.525 4.01 35 3 C35 2.01 35 1.02 35 0 C40.61 0 46.22 0 52 0 C52 0.99 52 1.98 52 3 C50.35 3.33 48.7 3.66 47 4 C47 19.84 47 35.68 47 52 C42 52 42 52 40.078125 50.41796875 C39.47484375 49.68191406 38.8715625 48.94585937 38.25 48.1875 C37.56164062 47.36378906 36.87328125 46.54007812 36.1640625 45.69140625 C35.44992188 44.80324219 34.73578125 43.91507812 34 43 C32.54214525 41.20794389 31.08380198 39.41628511 29.625 37.625 C28.8825 36.70847656 28.14 35.79195313 27.375 34.84765625 C24.09589733 30.915969 20.6464652 27.16341249 17.1640625 23.41015625 C15 21 15 21 12 17 C11.67 26.57 11.34 36.14 11 46 C12.65 46.66 14.3 47.32 16 48 C16.66 48.33 17.32 48.66 18 49 C18 49.66 18 50.32 18 51 C12.06 51 6.12 51 0 51 C0.33 49.68 0.66 48.36 1 47 C3.475 46.505 3.475 46.505 6 46 C6 32.47 6 18.94 6 5 C4.02 4.34 2.04 3.68 0 3 C0 2.01 0 1.02 0 0 Z " fill="#F3F0E0" transform="translate(181,271)"/>
<path d="M0 0 C3.6875 1.0625 3.6875 1.0625 5.671875 4.43359375 C8.02685697 9.55096444 9.82670204 14.85478366 11.625 20.1875 C11.9741748 21.19852783 12.32334961 22.20955566 12.68310547 23.2512207 C14.20628797 27.66464378 15.70596366 32.08087291 17.10546875 36.53515625 C17.50378906 37.76105469 17.90210938 38.98695313 18.3125 40.25 C18.63476562 41.29542969 18.95703125 42.34085937 19.2890625 43.41796875 C21.09616614 46.83531279 23.44571007 48.05969554 26.6875 50.0625 C26.6875 50.7225 26.6875 51.3825 26.6875 52.0625 C19.7575 52.0625 12.8275 52.0625 5.6875 52.0625 C5.6875 51.0725 5.6875 50.0825 5.6875 49.0625 C7.1725 48.5675 7.1725 48.5675 8.6875 48.0625 C8.08737636 44.37602622 7.42037817 40.72689084 6.6875 37.0625 C-1.7275 37.5575 -1.7275 37.5575 -10.3125 38.0625 C-12.52331851 43.64086298 -12.52331851 43.64086298 -12.3125 48.0625 C-11.3225 48.3925 -10.3325 48.7225 -9.3125 49.0625 C-9.3125 50.0525 -9.3125 51.0425 -9.3125 52.0625 C-14.2625 52.0625 -19.2125 52.0625 -24.3125 52.0625 C-23.9825 50.7425 -23.6525 49.4225 -23.3125 48.0625 C-21.3325 47.5675 -21.3325 47.5675 -19.3125 47.0625 C-19.09424561 46.18682373 -19.09424561 46.18682373 -18.87158203 45.29345703 C-16.66832706 36.82882187 -13.86644617 28.5962481 -11.01416016 20.33398438 C-10.17773754 17.90919867 -9.34831803 15.4820924 -8.51953125 13.0546875 C-7.98999278 11.51288015 -7.46005979 9.97120822 -6.9296875 8.4296875 C-6.6817746 7.70377411 -6.43386169 6.97786072 -6.17843628 6.22994995 C-4.04605089 0.07634058 -4.04605089 0.07634058 0 0 Z " fill="#F3F1E0" transform="translate(368.3125,269.9375)"/>
<path d="M0 0 C0 3.63 0 7.26 0 11 C-0.99 11.33 -1.98 11.66 -3 12 C-3.53625 11.071875 -4.0725 10.14375 -4.625 9.1875 C-7.65273237 5.12396445 -10.14125274 3.46191607 -15.17578125 2.6484375 C-19.54976992 2.36909032 -21.57994597 2.73552154 -25.375 5.125 C-30.51807091 10.75788719 -31.50498663 15.52509258 -31.4375 22.875 C-31.45748047 23.63941406 -31.47746094 24.40382813 -31.49804688 25.19140625 C-31.49320904 30.89037065 -30.18317445 35.24438891 -27 40 C-22.59193129 44.09320666 -19.79545468 45.12161508 -13.875 45.5625 C-12.77929688 45.64628906 -11.68359375 45.73007812 -10.5546875 45.81640625 C-9.29011719 45.90728516 -9.29011719 45.90728516 -8 46 C-8.05985162 43.37251369 -8.14676224 40.75083005 -8.25 38.125 C-8.26417969 37.37863281 -8.27835937 36.63226563 -8.29296875 35.86328125 C-8.35986341 33.42861619 -8.35986341 33.42861619 -9 30 C-10.90628782 28.39662601 -10.90628782 28.39662601 -13 28 C-13 27.34 -13 26.68 -13 26 C-6.73 26 -0.46 26 6 26 C5.505 27.485 5.505 27.485 5 29 C4.01 29 3.02 29 2 29 C2 35.27 2 41.54 2 48 C-7.70800142 51.75793603 -19.11734179 53.01504331 -29.2421875 50.05078125 C-35.40577007 47.15188559 -38.5365569 43.7178229 -41.75 37.75 C-44.41793241 30.06870011 -44.34734074 19.14866089 -42 11.375 C-37.69292189 4.10680569 -31.84389537 0.21482559 -23.859375 -2.34375 C-15.30109125 -4.30794627 -8.16906139 -2.84141266 0 0 Z " fill="#F5F3E2" transform="translate(281,272)"/>
<path d="M0 0 C3.88553172 0.51604718 5.69028666 1.58766008 8.5 4.33203125 C14.44587737 12.12318091 14.69150749 20.97964306 13.5 30.33203125 C11.7625494 35.83851839 9.56557957 40.30197815 4.5 43.33203125 C0.30513414 44.23845955 -3.77427746 44.2654611 -7.6015625 42.1953125 C-11.90564047 38.70626206 -15.01325378 34.76218262 -15.81616211 29.10400391 C-15.97524993 26.54790803 -16.00761026 24.01788338 -16 21.45703125 C-16.02835938 20.59722656 -16.05671875 19.73742187 -16.0859375 18.8515625 C-16.10804363 11.56759249 -13.79601042 6.99760876 -8.97583008 1.63696289 C-6.33718641 -0.69613064 -3.35836472 -0.13179629 0 0 Z " fill="#100F0D" transform="translate(151.5,274.66796875)"/>
<path d="M0 0 C7.26 0 14.52 0 22 0 C22 0.99 22 1.98 22 3 C20.68 3 19.36 3 18 3 C20.64 7.62 23.28 12.24 26 17 C27.98 14.339375 27.98 14.339375 30 11.625 C30.7425 10.62726563 31.485 9.62953125 32.25 8.6015625 C34.1860485 6.24598283 34.1860485 6.24598283 34 4 C33.34 3.67 32.68 3.34 32 3 C32 2.01 32 1.02 32 0 C37.28 0 42.56 0 48 0 C47.67 1.32 47.34 2.64 47 4 C45.33392729 4.66814964 43.66715967 5.33456717 42 6 C39.5377753 8.4925696 39.5377753 8.4925696 37.3125 11.4375 C36.16201172 12.88962891 36.16201172 12.88962891 34.98828125 14.37109375 C31.88383242 17.98862117 31.88383242 17.98862117 31.22290039 22.41748047 C32.01200443 25.03989408 32.98569118 27.00293087 34.43359375 29.3203125 C34.91763672 30.10277344 35.40167969 30.88523437 35.90039062 31.69140625 C36.66125977 32.89603516 36.66125977 32.89603516 37.4375 34.125 C38.19256836 35.34123047 38.19256836 35.34123047 38.96289062 36.58203125 C43.36699624 44.18854549 43.36699624 44.18854549 51 48 C51 48.99 51 49.98 51 51 C43.74 51 36.48 51 29 51 C29.33 50.01 29.66 49.02 30 48 C30.66 48 31.32 48 32 48 C31.59007812 47.26394531 31.18015625 46.52789062 30.7578125 45.76953125 C30.21898437 44.79371094 29.68015625 43.81789063 29.125 42.8125 C28.32449219 41.36810547 28.32449219 41.36810547 27.5078125 39.89453125 C26.1576322 37.30260482 25.02901671 34.73238902 24 32 C19.21663261 36.23144038 15.02483044 41.92550867 13 48 C13.99 48.33 14.98 48.66 16 49 C16 49.66 16 50.32 16 51 C10.72 51 5.44 51 0 51 C0 50.01 0 49.02 0 48 C1.32451172 47.45666016 1.32451172 47.45666016 2.67578125 46.90234375 C6.62485672 44.64241455 8.58087212 42.20201942 11.1875 38.5625 C11.61224609 37.98951172 12.03699219 37.41652344 12.47460938 36.82617188 C13.65959356 35.22469247 14.83027106 33.61265557 16 32 C16.63550781 31.30777344 17.27101563 30.61554688 17.92578125 29.90234375 C18.28027344 29.27457031 18.63476562 28.64679688 19 28 C17.28197147 22.74755398 14.20803297 18.38895443 11.1875 13.8125 C10.66607422 12.99330078 10.14464844 12.17410156 9.60742188 11.33007812 C5.99819276 5.65896968 5.99819276 5.65896968 0 3 C0 2.01 0 1.02 0 0 Z " fill="#F5F2E1" transform="translate(290,271)"/>
<path d="M0 0 C2.83493649 2.00519898 4.60720983 3.94939654 6.5625 6.8125 C6.975 7.410625 7.3875 8.00875 7.8125 8.625 C9.56905242 13.74827788 9.09508995 18.24481493 6.875 23.0625 C4.48019842 27.36302397 1.53345247 29.66277772 -2.6875 32.125 C-7.72788737 33.38509684 -12.5322992 32.65925591 -17.25 30.5625 C-22.25250729 26.56049417 -24.8518191 22.24060257 -25.6953125 15.86328125 C-25.99101572 10.68847492 -24.78846009 7.90811789 -21.4375 3.8125 C-15.80671835 -2.50080063 -7.76816995 -2.68354962 0 0 Z " fill="#EFECDD" transform="translate(223.4375,350.1875)"/>
<path d="M0 0 C11.6627907 0 11.6627907 0 17 4 C22.62145595 10.13756977 23.29658268 15.59173167 23.21484375 23.765625 C22.84535963 29.32804054 21.26054107 32.46690951 17.6875 36.8125 C11.80732028 41.5986928 7.83366233 41 0 41 C0 27.47 0 13.94 0 0 Z " fill="#100F0D" transform="translate(82,276)"/>
<path d="M0 0 C7.26 0 14.52 0 22 0 C21.67 0.99 21.34 1.98 21 3 C18.9375 3.6875 18.9375 3.6875 17 4 C16.87650884 9.92643599 16.78571228 15.85212529 16.7253418 21.77954102 C16.70017929 23.79627525 16.6660457 25.81291813 16.62280273 27.8293457 C16.56222675 30.7263032 16.53380831 33.62205661 16.51171875 36.51953125 C16.48591232 37.42274612 16.4601059 38.325961 16.43351746 39.25654602 C16.43245911 41.61237335 16.45795912 43.70692096 17 46 C19.38980411 48.03528084 19.38980411 48.03528084 22 49 C22 49.66 22 50.32 22 51 C14.74 51 7.48 51 0 51 C0 50.01 0 49.02 0 48 C0.8149292 47.62963623 1.6298584 47.25927246 2.46948242 46.87768555 C5.12347598 45.32477188 5.12347598 45.32477188 5.44692993 43.19082642 C5.57976284 40.76601285 5.56116865 38.38450174 5.48828125 35.95703125 C5.48120651 35.0734343 5.47413177 34.18983734 5.46684265 33.27946472 C5.43884526 30.45628309 5.3760987 27.63508241 5.3125 24.8125 C5.28742396 22.89911718 5.26460958 20.98570328 5.24414062 19.07226562 C5.18900123 14.38074673 5.1026932 9.69070923 5 5 C2.525 4.01 2.525 4.01 0 3 C0 2.01 0 1.02 0 0 Z " fill="#F9F7E6" transform="translate(400,271)"/>
<path d="M0 0 C2.31 0 4.62 0 7 0 C7 4.62 7 9.24 7 14 C11.62 14 16.24 14 21 14 C21 9.38 21 4.76 21 0 C22.98 0 24.96 0 27 0 C27 10.89 27 21.78 27 33 C25.02 33 23.04 33 21 33 C21 28.71 21 24.42 21 20 C16.38 20 11.76 20 7 20 C7 24.29 7 28.58 7 33 C4.69 33 2.38 33 0 33 C0 22.11 0 11.22 0 0 Z " fill="#E3E1D1" transform="translate(157,349)"/>
<path d="M0 0 C6.6 0 13.2 0 20 0 C20 1.98 20 3.96 20 6 C15.38 6 10.76 6 6 6 C6 8.64 6 11.28 6 14 C9.96 14 13.92 14 18 14 C18 15.65 18 17.3 18 19 C14.04 19 10.08 19 6 19 C6 21.64 6 24.28 6 27 C10.95 27 15.9 27 21 27 C21 28.98 21 30.96 21 33 C14.07 33 7.14 33 0 33 C0 22.11 0 11.22 0 0 Z " fill="#E6E4D6" transform="translate(279,349)"/>
<path d="M0 0 C2.92483867 1.82547936 5.43429205 3.86858411 7 7 C7.37198088 12.57971317 7.20267163 16.19599256 4 21 C0.84484001 23.39356965 -2.13146779 23.32237768 -6 23 C-8.78789259 22.12380519 -9.85321606 21.17299536 -11.75 18.9375 C-13.47590734 14.88161774 -13.58383519 11.3472053 -13 7 C-11.73854888 4.03558987 -10.77685568 2.56255067 -8.1875 0.6875 C-5.17760008 -0.25846855 -3.14801964 -0.44072275 0 0 Z " fill="#100F0D" transform="translate(218,354)"/>
<path d="M0 0 C8.58 0 17.16 0 26 0 C26 1.98 26 3.96 26 6 C22.7 6 19.4 6 16 6 C16 14.91 16 23.82 16 33 C14.02 33 12.04 33 10 33 C10 24.09 10 15.18 10 6 C6.7 6 3.4 6 0 6 C0 4.02 0 2.04 0 0 Z " fill="#E5E2D4" transform="translate(241,349)"/>
<path d="M0 0 C2.31 0 4.62 0 7 0 C7 8.91 7 17.82 7 27 C11.62 27 16.24 27 21 27 C21 28.98 21 30.96 21 33 C14.07 33 7.14 33 0 33 C0 22.11 0 11.22 0 0 Z " fill="#D9D7C9" transform="translate(313,349)"/>
<path d="M0 0 C0.66 0 1.32 0 2 0 C2.26554687 0.80824219 2.53109375 1.61648438 2.8046875 2.44921875 C3.15789062 3.51785156 3.51109375 4.58648437 3.875 5.6875 C4.22304688 6.74324219 4.57109375 7.79898437 4.9296875 8.88671875 C5.60411551 10.84846738 6.3320099 12.79338917 7.1328125 14.70703125 C8 17 8 17 8 20 C3.38 20 -1.24 20 -6 20 C-4.20532905 13.24861881 -2.29690099 6.59748156 0 0 Z " fill="#22211E" transform="translate(365,283)"/>
<path d="M0 0 C7.68514323 -0.39448454 13.72468171 0.46945451 21 3 C21 6.63 21 10.26 21 14 C20.01 14.33 19.02 14.66 18 15 C17.46375 14.071875 16.9275 13.14375 16.375 12.1875 C13.82105369 8.75983521 11.90189922 7.5962315 8 6 C8 5.34 8 4.68 8 4 C7.05125 3.896875 6.1025 3.79375 5.125 3.6875 C2 3 2 3 0 0 Z " fill="#ECEADB" transform="translate(260,269)"/>
<path d="M0 0 C0.99 0.99 1.98 1.98 3 3 C2.67 3.33 2.34 3.66 2 4 C1.84193469 5.92478813 1.748865 7.8549921 1.68359375 9.78515625 C1.64169922 10.95498047 1.59980469 12.12480469 1.55664062 13.33007812 C1.51732422 14.56177734 1.47800781 15.79347656 1.4375 17.0625 C1.39431641 18.29806641 1.35113281 19.53363281 1.30664062 20.80664062 C1.20015802 23.87097335 1.09814576 26.93539073 1 30 C0.67 30 0.34 30 0 30 C0 20.1 0 10.2 0 0 Z " fill="#322F27" transform="translate(192,287)"/>
<path d="M0 0 C6.27 0 12.54 0 19 0 C18.67 0.99 18.34 1.98 18 3 C17.01 3 16.02 3 15 3 C15 2.34 15 1.68 15 1 C10.05 1 5.1 1 0 1 C0 0.67 0 0.34 0 0 Z " fill="#DCDAD1" transform="translate(268,298)"/>
<path d="M0 0 C1.125 1.6875 1.125 1.6875 2 4 C1.125 6.75 1.125 6.75 0 9 C-0.66 9 -1.32 9 -2 9 C-1.125 2.25 -1.125 2.25 0 0 Z " fill="#C69A41" transform="translate(246,89)"/>
</svg>
